HIERARCHY
ROOT RootJoint
{
    OFFSET   0.000000   0.000000   0.000000
    CHANNELS 6 Xposition Yposition Zposition Xrotation Yrotation Zrotation
    JOINT pelvis_lowerback
    {
        OFFSET   0.000000   0.093605   0.000000
        CHANNELS 3 Xrotation Yrotation Zrotation
        JOINT lowerback_torso
        {
            OFFSET   0.000000   0.100000   0.000000
            CHANNELS 3 Xrotation Yrotation Zrotation
            JOINT torso_head
            {
                OFFSET   0.000000   0.282350   0.000000
                CHANNELS 3 Xrotation Yrotation Zrotation
                End Site
                {
                    OFFSET   0.000000   0.192650   0.000000
                }
            }
            JOINT rTorso_Clavicle
            {
                OFFSET  -0.001000   0.157500   0.000000
                CHANNELS 3 Xrotation Yrotation Zrotation
                JOINT rShoulder
                {
                    OFFSET  -0.117647   0.000000   0.000000
                    CHANNELS 3 Xrotation Yrotation Zrotation
                    JOINT rElbow
                    {
                        OFFSET  -0.245000   0.000000   0.000000
                        CHANNELS 3 Xrotation Yrotation Zrotation
                        JOINT rWrist
                        {
                            OFFSET  -0.240000   0.000000   0.000000
                            CHANNELS 3 Xrotation Yrotation Zrotation
                            End Site
                            {
                                OFFSET  -0.116353  -0.002500   0.000000
                            }
                        }
                    }
                }
            }
            JOINT lTorso_Clavicle
            {
                OFFSET   0.001000   0.157500   0.000000
                CHANNELS 3 Xrotation Yrotation Zrotation
                JOINT lShoulder
                {
                    OFFSET   0.117647   0.000000   0.000000
                    CHANNELS 3 Xrotation Yrotation Zrotation
                    JOINT lElbow
                    {
                        OFFSET   0.245000   0.000000   0.000000
                        CHANNELS 3 Xrotation Yrotation Zrotation
                        JOINT lWrist
                        {
                            OFFSET   0.240000   0.000000   0.000000
                            CHANNELS 3 Xrotation Yrotation Zrotation
                            End Site
                            {
                                OFFSET   0.116353  -0.002500   0.000000
                            }
                        }
                    }
                }
            }
        }
    }
    JOINT rHip
    {
        OFFSET  -0.100000  -0.051395   0.000000
        CHANNELS 3 Xrotation Yrotation Zrotation
        JOINT rKnee
        {
            OFFSET   0.000000  -0.410000   0.000000
            CHANNELS 3 Xrotation Yrotation Zrotation
            JOINT rAnkle
            {
                OFFSET   0.000000  -0.390000   0.000000
                CHANNELS 3 Xrotation Yrotation Zrotation
                JOINT rToeJoint
                {
                    OFFSET   0.000000  -0.050000   0.130000
                    CHANNELS 3 Xrotation Yrotation Zrotation
                    End Site
                    {
                        OFFSET  -0.010000   0.002000   0.060000
                    }
                }
            }
        }
    }
    JOINT lHip
    {
        OFFSET   0.100000  -0.051395   0.000000
        CHANNELS 3 Xrotation Yrotation Zrotation
        JOINT lKnee
        {
            OFFSET   0.000000  -0.410000   0.000000
            CHANNELS 3 Xrotation Yrotation Zrotation
            JOINT lAnkle
            {
                OFFSET   0.000000  -0.390000   0.000000
                CHANNELS 3 Xrotation Yrotation Zrotation
                JOINT lToeJoint
                {
                    OFFSET   0.000000  -0.050000   0.130000
                    CHANNELS 3 Xrotation Yrotation Zrotation
                    End Site
                    {
                        OFFSET   0.010000   0.002000   0.060000
                    }
                }
            }
        }
    }
}
MOTION
Frames: 7
Frame Time:   0.008333
 -2.701305   0.911954   3.794523   0.596777  12.350128   1.790273   0.868962   1.138537  -3.145157  -4.301044   0.868984  -0.284109  -2.178358  -8.412530   2.333723   0.538013  -1.697846  -0.757369   8.981208  13.330999  50.443483 179.883128  81.180290 -179.898525  -1.713999   8.108637  -0.178922  -3.275056  13.212989   6.304737 -37.342361  18.154787 -23.726942   0.053001 -68.849461   0.038796  -9.604987  -4.061284  23.541868 -19.674060 -21.970568 -13.495679  29.615388  -0.000916  -0.005897  -9.777289 -22.629263  -2.368106  -0.900203  -0.003375  -0.053724   2.757275   8.605488   7.664146  15.189931  -0.005504  -0.005560  -3.779486   9.019757  -4.819361 -19.738164   0.003160  -0.001569
 -2.706378   0.910612   3.797978   0.655234  11.233611   1.931654   0.500524   0.852772  -3.201723  -4.151212   1.011073  -0.316099  -2.211049  -8.550131   2.260341   0.621889  -1.723869  -0.542027   8.996419  13.720902  50.965351 179.847466  82.093030 -179.866663  -1.588807   8.233207  -0.258180  -2.864413  13.758501   5.857871 -35.816958  18.553573 -24.956260   0.074767 -69.442124   0.057365  -9.475912  -4.111974  23.687598 -19.627201 -21.872322 -12.842522  29.281949   0.001756  -0.002818 -10.070112 -22.222946  -2.894382  -0.370345  -0.004529  -0.044752   2.527486   9.093473   7.806563  16.223752  -0.008637  -0.008663  -3.701353   9.824013  -4.996251 -20.752717   0.006721  -0.003014
 -2.711621   0.909009   3.801527   0.661471  10.033825   2.029317   0.157894   0.590014  -3.199018  -3.980544   1.161931  -0.344593  -2.240687  -8.678400   2.194513   0.720185  -1.740551  -0.325331   9.023279  14.091291  51.469410 179.808871  82.972539 -179.830887  -1.471146   8.188993  -0.292303  -2.419728  14.282168   5.320014 -34.297329  18.942818 -26.207803   0.092110 -69.993421   0.072094  -9.357091  -4.129301  23.593740 -19.498132 -21.767247 -12.058408  28.972046   0.003881  -0.000400 -10.343792 -21.827302  -3.380873   0.088582  -0.005457  -0.037527   2.313244   9.552736   8.001717  17.387710  -0.012038  -0.012593  -3.216059  10.591252  -5.096225 -24.096173   0.023829  -0.002862
 -2.717100   0.907572   3.805272   0.640374   8.768892   2.225881  -0.178480   0.344724  -3.294698  -3.817580   1.306315  -0.418824  -2.266480  -8.798049   2.138879   0.837855  -1.758378  -0.064001   9.063800  14.443660  51.968060 179.765302  83.806436 -179.789225  -1.357369   8.066835  -0.256795  -1.978687  14.777024   4.730078 -32.834812  19.307823 -27.427063   0.103857 -70.490527   0.081867  -9.276311  -4.069848  23.417485 -19.365615 -21.668083 -11.319015  28.676841   0.005636   0.001655 -10.594931 -21.455510  -3.831550   0.512591  -0.006274  -0.032015   2.162343  10.009374   8.135506  18.561606  -0.015522  -0.016132  -3.031437  11.336965  -5.216771 -25.128009   0.024468  -0.001177
 -2.722757   0.906060   3.809136   0.614414   7.425981   2.445190  -0.513265   0.122510  -3.399320  -3.674027   1.447572  -0.524288  -2.292701  -8.909470   2.084701   0.955999  -1.778037   0.179888   9.105896  14.773780  52.437932 179.715081  84.584634 -179.739711  -1.249426   7.933094  -0.190891  -1.547457  15.245296   4.127684 -31.436720  19.644278 -28.603708   0.111201 -70.943664   0.087972  -9.232016  -3.940998  23.220046 -19.235829 -21.583963 -10.564005  28.410370   0.006927   0.003307 -10.825829 -21.106480  -4.249142   0.899868  -0.006936  -0.027806   2.071220  10.411379   8.254786  19.717756  -0.018994  -0.019935  -2.715683  11.992619  -5.310596 -26.472264   0.026955   0.003338
 -2.728383   0.904621   3.813032   0.628568   5.942153   2.594094  -0.870244  -0.054113  -3.417219  -3.570306   1.601874  -0.617353  -2.320600  -9.012528   2.034565   1.068430  -1.801708   0.397252   9.148203  15.074213  52.863354 179.651950  85.316284 -179.676584  -1.145327   7.787995  -0.123452  -1.123828  15.702716   3.500187 -30.096880  19.963074 -29.740643   0.115206 -71.359383   0.091362  -9.209340  -3.773013  23.023697 -19.089672 -21.599309  -9.901857  28.308717   0.006385   0.003661 -11.368660 -20.978971  -4.786023  -1.639955   0.001817   0.003540   2.001860  10.830651   8.420039  20.824992  -0.022084  -0.023737  -2.278845  12.652272  -5.401395 -28.053790   0.030494   0.009780
 -2.734054   0.903768   3.816648   0.695131   4.366919   2.571237  -1.211935  -0.214852  -3.299541  -3.507033   1.749872  -0.647540  -2.354823  -9.109275   1.998228   1.172654  -1.825225   0.615274   9.187291  15.345353  53.251324 179.571637  86.013695 -179.596070  -1.044121   7.603972  -0.088978  -0.711657  16.133672   2.834241 -28.813830  20.260897 -30.849322   0.117099 -71.740884   0.093150  -9.199807  -3.584396  22.834712 -18.943694 -21.562066  -9.151383  28.393541   0.004472   0.002058 -12.262514 -20.739972  -5.292475  -1.082452   0.000234  -0.002625   1.894472  11.213627   8.743245  21.858724  -0.024717  -0.027276  -1.725488  13.297162  -5.465488 -29.319194   0.031728   0.015595
